<svg xmlns="http://www.w3.org/2000/svg" version="1.1" xmlns:xlink="http://www.w3.org/1999/xlink" xmlns:svgjs="http://svgjs.dev/svgjs" width="2000" height="611" viewBox="0 0 2000 611"><g transform="matrix(1,0,0,1,-1.2112696095522324,-1.0867969767742238)"><svg viewBox="0 0 396 121" data-background-color="#ffffff" preserveAspectRatio="xMidYMid meet" height="611" width="2000" xmlns="http://www.w3.org/2000/svg" xmlns:xlink="http://www.w3.org/1999/xlink"><g id="tight-bounds" transform="matrix(1,0,0,1,0.24008861730862918,0.21522493320733815)"><svg viewBox="0 0 395.52 120.56955013358532" height="120.56955013358532" width="395.52"><g><svg viewBox="0 0 395.52 120.56955013358532" height="120.56955013358532" width="395.52"><g><svg viewBox="0 0 395.52 120.56955013358532" height="120.56955013358532" width="395.52"><g id="textblocktransform"><svg viewBox="0 0 395.52 120.56955013358532" height="120.56955013358532" width="395.52" id="textblock"><g><svg viewBox="0 0 395.52 94.38762805286413" height="94.38762805286413" width="395.52"><path d="M394.594 20.244C392.735 10.447 387.435 7.723 387.435 7.723 371.165-2.368 350.86-0.193 332.619 1.257 300.414 1.316 268.339 3.471 236.208 4.627 168.767 4.804 100.749 1.904 33.643 9.056 27.339 11.25-6.54 9.487 1.121 21.498 3.129 26.495 10.456 32.04 10.232 36.626 11.236 37.429 12.631 35.587 13.226 36.743 15.309 39.859 18.711 38.389 21.501 40.231 17.614 45.149 20.403 49.245 23.062 53.536 18.377 54.653 12.371 54.124 9.675 57.827 9.396 60.512 7.89 60.002 6.235 59.885 5.026 59.806 2.59 60.1 2.999 60.943 4.394 63.823-1.594 65.489 2.162 68.31-0.422 71.367 3.948 74.012 3.353 77.324 3.278 77.99 3.687 78.558 4.338 78.715 7.22 79.558 3.018 81.204 3.464 82.987 33.029 95.175 65.104 86.749 95.394 92.353 103.259 88.434 97.346 93.744 100.489 92.921 102.943 91.961 104.728 95.939 107.499 93.686 107.927 93.039 107.276 91.511 108.8 91.805 109.6 91.961 110.307 91.922 110.418 91.021 110.586 89.669 109.117 90.511 108.726 89.806 112.947 86.24 111.906 94.724 115.866 94.371 115.68 93.333 114.528 91.844 116.889 92.04 119.232 90.551 119.306 89.316 121.389 92.667 121.463 93.392 121.835 93.901 122.43 94.254 128.938 90.609 135.409 95.547 142.233 93.901 146.417 92.098 150.433 94.881 154.672 94.195 156.16 93.646 157.666 92.667 159.098 94.313 176.632 94.665 195.319 93.196 211.943 94.371 256.364 92.177 303.836 95.273 350.674 92.373 361.719 91.256 373.192 89.669 383.958 88.395 383.958 88.395 392.679 84.907 392.679 69.231S394.538 55.515 394.817 43.033C395.096 30.551 396.398 30.042 394.538 20.244Z" opacity="1" fill="#3d3839" data-fill-palette-color="tertiary"></path><g transform="matrix(1,0,0,1,55.76832,26.068561146666667)"><svg width="283.98335999999995" viewBox="2.25 -36.21 249.73 37.160000000000004" height="42.25050575953079" data-palette-color="#ffffff"><path d="M2.25-3.39L2.25-31.64Q2.25-32.5 2.39-33.13 2.54-33.76 2.95-34.19 3.37-34.62 4.1-34.84 4.83-35.06 6.01-35.06L6.01-35.06 17.75-35.06Q19.58-35.06 21.39-34.8 23.19-34.55 24.83-33.89 26.46-33.23 27.87-32.07 29.27-30.91 30.3-29.08 31.32-27.25 31.91-24.68 32.5-22.12 32.5-18.65L32.5-18.65Q32.5-14.58 31.87-11.61 31.25-8.64 30.19-6.57 29.13-4.49 27.67-3.21 26.22-1.93 24.55-1.21 22.88-0.49 21.08-0.24 19.29 0 17.5 0L17.5 0 6.01 0Q4.83 0 4.1-0.22 3.37-0.44 2.95-0.85 2.54-1.27 2.39-1.9 2.25-2.54 2.25-3.39L2.25-3.39ZM29.05-18.14L29.05-18.14Q29.05-21.17 28.56-23.66 28.08-26.15 27.03-27.91 25.98-29.66 24.35-30.64 22.73-31.62 20.46-31.64L20.46-31.64 20.46-3.39Q22.73-3.42 24.37-4.58 26-5.74 27.04-7.74 28.08-9.74 28.56-12.41 29.05-15.09 29.05-18.14ZM18.38-3.37L18.38-31.69 16.48-31.69 16.48-3.37 18.38-3.37ZM36.25-3.39L36.25-31.64Q36.25-32.5 36.4-33.13 36.55-33.76 36.96-34.19 37.38-34.62 38.11-34.84 38.84-35.06 40.01-35.06L40.01-35.06 50.9-35.06Q52.32-35.06 53.06-34.64 53.81-34.23 54.11-33.61 54.42-32.98 54.44-32.29 54.47-31.59 54.47-31.01L54.47-31.01 54.47-3.96Q54.47-3.39 54.37-2.71 54.27-2.03 53.88-1.43 53.49-0.83 52.68-0.42 51.88 0 50.46 0L50.46 0 40.01 0Q38.84 0 38.11-0.22 37.38-0.44 36.96-0.85 36.55-1.27 36.4-1.9 36.25-2.54 36.25-3.39L36.25-3.39ZM52.39-3.61L52.39-31.45Q52.39-31.98 52.32-32.3 52.24-32.62 52.02-32.78 51.8-32.93 51.44-32.97 51.07-33.01 50.49-33.01L50.49-33.01 50.49-2.05Q51.07-2.05 51.44-2.09 51.8-2.12 52.02-2.28 52.24-2.44 52.32-2.75 52.39-3.05 52.39-3.61L52.39-3.61ZM81.98-31.35L81.98-31.35Q81.44-31.35 80.84-31.18 80.24-31.01 79.66-30.52 79.07-30.03 78.52-29.16 77.97-28.3 77.57-26.88 77.17-25.46 76.92-23.45 76.68-21.44 76.68-18.65L76.68-18.65Q76.68-15.89 76.92-13.84 77.17-11.79 77.57-10.33 77.97-8.86 78.52-7.92 79.07-6.98 79.66-6.45 80.24-5.91 80.84-5.7 81.44-5.49 81.98-5.49L81.98-5.49Q82.71-5.49 83.34-5.81L83.34-5.81 83.34-15.16Q83.34-15.55 83.52-15.93 83.69-16.31 84.32-16.31L84.32-16.31 86.88-16.31Q87.1-16.31 87.32-16.28 87.54-16.26 87.71-16.15 87.89-16.04 87.98-15.81 88.08-15.58 88.08-15.16L88.08-15.16 88.08-1.15Q88.08-0.73 87.98-0.5 87.89-0.27 87.71-0.16 87.54-0.05 87.32-0.02 87.1 0 86.88 0L86.88 0 84.32 0Q84 0 83.82-0.1 83.64-0.2 83.53-0.37 83.42-0.54 83.38-0.74 83.34-0.95 83.34-1.15L83.34-1.15 83.34-1.86Q82.56-1.29 81.61-0.78 80.66-0.27 79.52 0.12 78.39 0.51 77.07 0.73 75.75 0.95 74.24 0.95L74.24 0.95Q72.46 0.95 70.58 0.63 68.7 0.32 66.93-0.5 65.16-1.32 63.57-2.73 61.98-4.15 60.8-6.32 59.61-8.5 58.92-11.54 58.22-14.58 58.22-18.65L58.22-18.65Q58.22-22.12 58.92-24.77 59.61-27.42 60.81-29.37 62.01-31.32 63.61-32.64 65.2-33.96 67.01-34.75 68.82-35.55 70.73-35.88 72.65-36.21 74.48-36.21L74.48-36.21Q76.48-36.21 78.29-35.89 80.1-35.57 81.6-35.08 83.1-34.59 84.27-33.98 85.44-33.37 86.2-32.79L86.2-32.79Q86.27-32.71 86.37-32.63 86.47-32.54 86.47-32.42L86.47-32.42Q86.47-32.32 86.4-32.18L86.4-32.18 85.35-30.52Q85.2-30.3 85-30.3L85-30.3Q84.86-30.3 84.6-30.46 84.35-30.62 83.95-30.82 83.56-31.03 83.08-31.19 82.59-31.35 81.98-31.35ZM72.55-18.65L72.55-18.65Q72.55-15.84 72.83-13.73 73.12-11.62 73.62-10.07 74.12-8.52 74.79-7.48 75.46-6.45 76.23-5.77 77-5.1 77.81-4.74 78.63-4.37 79.44-4.17L79.44-4.17Q79.17-4.32 78.71-4.65 78.24-4.98 77.69-5.62 77.14-6.25 76.59-7.28 76.04-8.3 75.59-9.85 75.14-11.4 74.86-13.56 74.58-15.72 74.58-18.65L74.58-18.65Q74.58-21.56 74.86-23.69 75.14-25.83 75.59-27.33 76.04-28.83 76.59-29.79 77.14-30.74 77.69-31.32 78.24-31.91 78.71-32.19 79.17-32.47 79.44-32.64L79.44-32.64Q78.63-32.45 77.81-32.12 77-31.79 76.23-31.16 75.46-30.54 74.79-29.57 74.12-28.59 73.62-27.1 73.12-25.61 72.83-23.54 72.55-21.46 72.55-18.65ZM92.08-3.39L92.08-31.64Q92.08-32.5 92.23-33.13 92.38-33.76 92.79-34.19 93.21-34.62 93.94-34.84 94.67-35.06 95.84-35.06L95.84-35.06 106.73-35.06Q108.15-35.06 108.89-34.64 109.64-34.23 109.94-33.61 110.25-32.98 110.27-32.29 110.3-31.59 110.3-31.01L110.3-31.01 110.3-3.96Q110.3-3.39 110.2-2.71 110.1-2.03 109.71-1.43 109.32-0.83 108.51-0.42 107.71 0 106.29 0L106.29 0 95.84 0Q94.67 0 93.94-0.22 93.21-0.44 92.79-0.85 92.38-1.27 92.23-1.9 92.08-2.54 92.08-3.39L92.08-3.39ZM108.22-3.61L108.22-31.45Q108.22-31.98 108.15-32.3 108.07-32.62 107.85-32.78 107.63-32.93 107.27-32.97 106.9-33.01 106.32-33.01L106.32-33.01 106.32-2.05Q106.9-2.05 107.27-2.09 107.63-2.12 107.85-2.28 108.07-2.44 108.15-2.75 108.22-3.05 108.22-3.61L108.22-3.61ZM147.5-17.63L147.5-17.63Q147.5-14.62 147.74-12.44 147.99-10.25 148.39-8.73 148.79-7.2 149.34-6.26 149.89-5.32 150.48-4.8 151.06-4.27 151.66-4.09 152.26-3.91 152.8-3.91L152.8-3.91Q153.41-3.91 153.89-4.06 154.38-4.22 154.77-4.43 155.16-4.64 155.42-4.8 155.68-4.96 155.82-4.96L155.82-4.96Q156.02-4.96 156.16-4.74L156.16-4.74 157.21-3.08Q157.29-2.93 157.29-2.83L157.29-2.83Q157.29-2.71 157.19-2.62 157.09-2.54 157.02-2.47L157.02-2.47Q156.26-1.88 155.09-1.27 153.92-0.66 152.42-0.17 150.92 0.32 149.11 0.63 147.3 0.95 145.3 0.95L145.3 0.95Q143.47 0.95 141.55 0.6 139.64 0.24 137.83-0.6 136.02-1.44 134.42-2.83 132.82-4.22 131.63-6.29 130.43-8.35 129.74-11.15 129.04-13.94 129.04-17.63L129.04-17.63Q129.04-21.31 129.74-24.11 130.43-26.9 131.63-28.97 132.82-31.03 134.42-32.42 136.02-33.81 137.83-34.66 139.64-35.5 141.55-35.85 143.47-36.21 145.3-36.21L145.3-36.21Q147.3-36.21 149.11-35.89 150.92-35.57 152.42-35.08 153.92-34.59 155.09-33.98 156.26-33.37 157.02-32.79L157.02-32.79Q157.09-32.71 157.19-32.63 157.29-32.54 157.29-32.42L157.29-32.42Q157.29-32.32 157.21-32.18L157.21-32.18 156.16-30.52Q156.02-30.3 155.82-30.3L155.82-30.3Q155.68-30.3 155.42-30.46 155.16-30.62 154.77-30.82 154.38-31.03 153.89-31.19 153.41-31.35 152.8-31.35L152.8-31.35Q152.26-31.35 151.66-31.16 151.06-30.98 150.48-30.46 149.89-29.93 149.34-28.99 148.79-28.05 148.39-26.53 147.99-25 147.74-22.81 147.5-20.63 147.5-17.63ZM143.37-17.63L143.37-17.63Q143.37-14.6 143.65-12.38 143.93-10.16 144.43-8.56 144.93-6.96 145.61-5.91 146.28-4.86 147.05-4.19 147.81-3.52 148.63-3.16 149.45-2.81 150.26-2.61L150.26-2.61Q149.99-2.78 149.52-3.09 149.06-3.39 148.51-4.02 147.96-4.64 147.41-5.68 146.86-6.71 146.41-8.33 145.96-9.94 145.68-12.22 145.4-14.5 145.4-17.63L145.4-17.63Q145.4-20.75 145.68-23.03 145.96-25.32 146.41-26.93 146.86-28.54 147.41-29.58 147.96-30.62 148.51-31.24 149.06-31.86 149.52-32.17 149.99-32.47 150.26-32.64L150.26-32.64Q149.45-32.42 148.63-32.08 147.81-31.74 147.05-31.07 146.28-30.4 145.61-29.35 144.93-28.3 144.43-26.7 143.93-25.1 143.65-22.88 143.37-20.65 143.37-17.63ZM171.18-35.06L174.81-35.06Q175.25-35.06 175.57-34.95 175.89-34.84 176.14-34.57 176.4-34.3 176.62-33.86 176.84-33.42 177.08-32.79L177.08-32.79 188.29-2.86Q188.41-2.51 188.46-2.25 188.51-1.98 188.51-1.71L188.51-1.71Q188.51-0.83 187.99-0.42 187.46 0 186.87 0L186.87 0 173.03 0Q172.4 0 171.97-0.16 171.54-0.32 171.25-0.54 170.96-0.76 170.8-1 170.64-1.25 170.59-1.44L170.59-1.44 170.32-2.29 163.46-2.29 163.29-1.56Q163.22-1.2 163.12-0.92 163.02-0.63 162.88-0.43 162.73-0.22 162.47-0.11 162.22 0 161.8 0L161.8 0 159.29 0Q158.51 0 158.51-0.61L158.51-0.61Q158.51-0.83 158.59-1.14 158.68-1.44 158.82-1.86L158.82-1.86 169.03-32.74Q169.39-33.89 169.86-34.45 170.32-35.01 171.18-35.06L171.18-35.06ZM166.78-14.84L164.22-5.3 169.49-5.3 166.78-14.84ZM186.07-2.91L175.08-32.23Q174.89-32.74 174.61-32.87 174.33-33.01 173.64-33.01L173.64-33.01 172.79-33.01 184.34-2.05 185.51-2.05Q185.95-2.05 186.11-2.23 186.26-2.42 186.07-2.91L186.07-2.91ZM216.51 0.05L213.09-6.64Q212.17-6.13 211.2-5.79 210.24-5.44 209.21-5.22L209.21-5.22 209.21-3.39Q209.21-2.61 209.04-1.99 208.87-1.37 208.44-0.93 208.01-0.49 207.32-0.24 206.62 0 205.57 0L205.57 0 194.76 0Q193.59 0 192.85-0.22 192.12-0.44 191.71-0.85 191.29-1.27 191.14-1.9 191-2.54 191-3.39L191-3.39 191-31.64Q191-32.5 191.14-33.13 191.29-33.76 191.71-34.19 192.12-34.62 192.85-34.84 193.59-35.06 194.76-35.06L194.76-35.06 205.65-35.06Q207.4-35.06 209.1-34.77 210.8-34.47 212.32-33.83 213.85-33.18 215.13-32.1 216.41-31.03 217.35-29.46 218.29-27.88 218.82-25.78 219.34-23.68 219.34-20.95L219.34-20.95Q219.34-18.6 219.05-16.7 218.76-14.79 218.24-13.26 217.73-11.72 217.01-10.53 216.29-9.35 215.41-8.45L215.41-8.45 220.3-2Q220.54-1.66 220.54-1.34L220.54-1.34Q220.54-0.98 220.28-0.71 220.03-0.44 219.73-0.27L219.73-0.27 218.27 0.59Q218.1 0.68 217.91 0.74 217.73 0.81 217.54 0.81L217.54 0.81Q217.27 0.81 217 0.63 216.73 0.46 216.51 0.05L216.51 0.05ZM215.9-20.51L215.9-20.51Q215.9-22.71 215.51-24.56 215.12-26.42 214.31-27.83 213.51-29.25 212.24-30.18 210.97-31.1 209.21-31.45L209.21-31.45 209.21-8.42Q210.97-8.81 212.24-9.85 213.51-10.89 214.31-12.45 215.12-14.01 215.51-16.05 215.9-18.09 215.9-20.51ZM207.14-3.61L207.14-31.81Q206.65-31.84 206.12-31.85 205.6-31.86 205.23-31.86L205.23-31.86 205.23-2.05Q205.82-2.05 206.18-2.09 206.55-2.12 206.77-2.28 206.99-2.44 207.06-2.75 207.14-3.05 207.14-3.61L207.14-3.61ZM250.57-22.8L241.48-22.8 241.48-3Q243.85-3.34 245.83-3.61L245.83-3.61Q246.66-3.74 247.5-3.85 248.34-3.96 249.05-4.05 249.76-4.15 250.27-4.2 250.79-4.25 250.98-4.25L250.98-4.25Q251.4-4.25 251.69-4.09 251.98-3.93 251.98-3.44L251.98-3.44 251.98-1.2Q251.98-0.76 251.76-0.38 251.54 0 250.71 0L250.71 0 226.98 0Q225.83 0 225.11-0.22 224.39-0.44 223.98-0.85 223.56-1.27 223.42-1.9 223.27-2.54 223.27-3.39L223.27-3.39 223.27-30.81Q223.27-32.2 223.59-33.04 223.91-33.89 224.49-34.34 225.08-34.79 225.9-34.92 226.71-35.06 227.71-35.06L227.71-35.06 249.78-35.06Q250.61-35.06 250.85-34.68 251.08-34.3 251.08-33.84L251.08-33.84 251.08-32.1Q251.08-31.62 250.82-31.46 250.57-31.3 250.15-31.3L250.15-31.3Q249.91-31.3 249.41-31.35 248.91-31.4 248.25-31.48 247.59-31.57 246.83-31.67 246.07-31.76 245.32-31.88L245.32-31.88Q243.56-32.15 241.48-32.5L241.48-32.5 241.48-26.29 250.57-26.29Q251.08-26.29 251.08-25.78L251.08-25.78 251.08-23.34Q251.08-22.8 250.57-22.8L250.57-22.8ZM239.41-2.71L239.41-32.84 237.5-33.11 237.5-2.47 239.41-2.71Z" opacity="1" transform="matrix(1,0,0,1,0,0)" fill="#ffffff" class="wordmark-text-0" data-fill-palette-color="quaternary" id="text-0"></path></svg></g></svg></g><g transform="matrix(1,0,0,1,0,104.36195845055113)"><svg viewBox="0 0 199.14432 16.207591683034202" height="16.207591683034202" width="199.14432"><g transform="matrix(1,0,0,1,0,0)"><svg width="199.14432" viewBox="0.3 -35.55 442.92 36.05" height="16.207591683034202" data-palette-color="#30c48d"><path d="M13.05-34.05L21.2-10.1 25.35-24.5 22.35-34.05 19.5-34.05 19.5-35 35-35 35-34.05 32.05-34.05 39.5-10.4 45.5-34.05 40.45-34.05 40.45-35 50.45-35 50.45-34.05 47.15-34.05 37.95 0.5 33.5 0.5 26.1-22.1 19.6 0.5 15.25 0.5 2.65-34.05 0.3-34.05 0.3-35 16.55-35 16.55-34.05 13.05-34.05ZM51.8-33.9L51.8-35 77.8-35 78.3-25.1 77.4-25.1Q75.3-30.15 73-32.02 70.7-33.9 66.25-33.9L66.25-33.9 64.5-33.9 64.5-18.45 66.2-18.45Q68.55-18.45 70.15-20.23 71.75-22 72.4-25L72.4-25 73.15-25 73.15-10.2 72.3-10.2Q71.4-13.95 69.87-15.55 68.35-17.15 65.7-17.15L65.7-17.15 64.5-17.15 64.5-1.1 66.4-1.1Q71-1.1 74.22-3.85 77.45-6.6 78.65-10.9L78.65-10.9 79.65-10.9 79.25 0 51.8 0 51.8-1.1 54.75-1.1 54.75-33.9 51.8-33.9ZM110.94-34.55L110.94-34.55Q103.19-34.55 103.19-19.6L103.19-19.6 103.19-15.65Q103.19-8.55 105.24-4.53 107.29-0.5 111.29-0.5L111.29-0.5Q116.79-0.5 121.39-11.2L121.39-11.2 122.29-11.2 121.94-0.05 121.39-0.05Q121.09-0.6 120.84-0.83 120.59-1.05 120.12-1.05 119.64-1.05 116.49-0.28 113.34 0.5 110.09 0.5L110.09 0.5Q101.94 0.5 97.47-3.9 92.99-8.3 92.99-17.13 92.99-25.95 97.67-30.75 102.34-35.55 110.24-35.55L110.24-35.55Q113.29-35.55 116.22-34.77 119.14-34 119.64-34 120.14-34 120.39-34.23 120.64-34.45 120.94-35L120.94-35 121.49-35 121.89-24.15 120.99-24.15Q118.74-29.2 116.37-31.88 113.99-34.55 110.94-34.55ZM142.49-0.95L146.04-0.95 142.39-11.75 132.49-11.75 128.64-0.95 132.39-0.95 132.39 0 124.74 0 124.74-0.95 127.09-0.95 139.84-35.3 143.94-35.3 156.54-0.95 158.84-0.95 158.84 0 142.49 0 142.49-0.95ZM141.99-12.85L137.64-25.95 132.94-12.85 141.99-12.85ZM175.54-17.7L175.54-17.7 172.89-17.7 172.89-0.95 176.14-0.95 176.14 0 159.89 0 159.89-0.95 163.14-0.95 163.14-34.05 159.89-34.05 159.89-35 174.99-35Q181.49-35 184.21-34.33 186.94-33.65 188.04-32.7L188.04-32.7Q190.44-30.75 190.44-26.5 190.44-22.25 188.34-20.43 186.24-18.6 181.94-18.25L181.94-18.25 181.94-18.1Q185.99-17.55 187.59-15.7 189.19-13.85 189.19-9.5L189.19-9.5 189.19-6.85Q189.19-4.25 189.46-3.35 189.74-2.45 190.64-2.45 191.54-2.45 192.06-3.28 192.59-4.1 193.04-6.75L193.04-6.75 193.89-6.65Q193.34-2.4 191.96-0.95 190.59 0.5 186.49 0.5 182.39 0.5 180.66-1.43 178.94-3.35 178.94-8.65L178.94-8.65 178.94-12.3Q178.94-15.1 178.21-16.4 177.49-17.7 175.54-17.7ZM174.54-34.05L172.89-34.05 172.89-18.65 174.49-18.65Q177.34-18.65 178.71-20.4 180.09-22.15 180.09-26.1L180.09-26.1 180.09-27.55Q180.09-31.5 178.76-32.77 177.44-34.05 174.54-34.05L174.54-34.05ZM195.99-33.9L195.99-35 221.99-35 222.49-25.1 221.59-25.1Q219.49-30.15 217.19-32.02 214.89-33.9 210.44-33.9L210.44-33.9 208.69-33.9 208.69-18.45 210.39-18.45Q212.74-18.45 214.34-20.23 215.94-22 216.59-25L216.59-25 217.34-25 217.34-10.2 216.49-10.2Q215.59-13.95 214.06-15.55 212.54-17.15 209.89-17.15L209.89-17.15 208.69-17.15 208.69-1.1 210.59-1.1Q215.19-1.1 218.41-3.85 221.64-6.6 222.84-10.9L222.84-10.9 223.84-10.9 223.44 0 195.99 0 195.99-1.1 198.94-1.1 198.94-33.9 195.99-33.9ZM236.18-33.9L236.18-35 262.18-35 262.68-24.6 261.78-24.6Q259.93-30 257.51-31.95 255.08-33.9 250.28-33.9L250.28-33.9 248.88-33.9 248.88-17.65 251.13-17.65Q253.53-17.65 255.13-19.4 256.73-21.15 257.33-24.2L257.33-24.2 258.08-24.2 258.08-9.4 257.23-9.4Q256.43-13.15 255.01-14.75 253.58-16.35 251.13-16.35L251.13-16.35 248.88-16.35 248.88-1.1 255.08-1.1 255.08 0 236.18 0 236.18-1.1 239.13-1.1 239.13-33.9 236.18-33.9ZM287.78-15.45L287.78-15.45 287.78-19.15Q287.78-28.3 286.88-30.7L286.88-30.7Q285.88-33.45 284.03-34.1L284.03-34.1Q282.98-34.5 281.48-34.5 279.98-34.5 278.9-34.1 277.83-33.7 277.13-32.7 276.43-31.7 276-30.6 275.58-29.5 275.33-27.5L275.33-27.5Q275.03-24.6 275.03-18.95L275.03-18.95 275.03-15.35Q275.03-9.25 275.5-6.68 275.98-4.1 276.68-3L276.68-3Q278.23-0.55 281.48-0.55L281.48-0.55Q285.43-0.55 286.6-3.88 287.78-7.2 287.78-15.45ZM281.38 0.5Q273.03 0.5 268.9-4.03 264.78-8.55 264.78-17.13 264.78-25.7 269.2-30.63 273.63-35.55 281.73-35.55 289.83-35.55 293.95-30.88 298.08-26.2 298.08-17.6 298.08-9 293.9-4.25 289.73 0.5 281.38 0.5ZM316.53-17.7L316.53-17.7 313.88-17.7 313.88-0.95 317.13-0.95 317.13 0 300.88 0 300.88-0.95 304.13-0.95 304.13-34.05 300.88-34.05 300.88-35 315.98-35Q322.48-35 325.2-34.33 327.93-33.65 329.03-32.7L329.03-32.7Q331.43-30.75 331.43-26.5 331.43-22.25 329.33-20.43 327.23-18.6 322.93-18.25L322.93-18.25 322.93-18.1Q326.98-17.55 328.58-15.7 330.18-13.85 330.18-9.5L330.18-9.5 330.18-6.85Q330.18-4.25 330.45-3.35 330.73-2.45 331.63-2.45 332.53-2.45 333.05-3.28 333.58-4.1 334.03-6.75L334.03-6.75 334.88-6.65Q334.33-2.4 332.95-0.95 331.58 0.5 327.48 0.5 323.38 0.5 321.65-1.43 319.93-3.35 319.93-8.65L319.93-8.65 319.93-12.3Q319.93-15.1 319.2-16.4 318.48-17.7 316.53-17.7ZM315.53-34.05L313.88-34.05 313.88-18.65 315.48-18.65Q318.33-18.65 319.7-20.4 321.08-22.15 321.08-26.1L321.08-26.1 321.08-27.55Q321.08-31.5 319.75-32.77 318.43-34.05 315.53-34.05L315.53-34.05ZM357.97-34.2L364.77-18.55 371.87-34.2 366.82-34.2 366.82-35 376.67-35 376.67-34.2 373.37-34.2 365.82-17.5 365.82-0.95 368.87-0.95 368.87 0 353.02 0 353.02-0.95 356.07-0.95 356.07-16.55 347.57-34.2 345.22-34.2 345.22-35 361.22-35 361.22-34.2 357.97-34.2ZM398.02-15.45L398.02-15.45 398.02-19.15Q398.02-28.3 397.12-30.7L397.12-30.7Q396.12-33.45 394.27-34.1L394.27-34.1Q393.22-34.5 391.72-34.5 390.22-34.5 389.14-34.1 388.07-33.7 387.37-32.7 386.67-31.7 386.24-30.6 385.82-29.5 385.57-27.5L385.57-27.5Q385.27-24.6 385.27-18.95L385.27-18.95 385.27-15.35Q385.27-9.25 385.74-6.68 386.22-4.1 386.92-3L386.92-3Q388.47-0.55 391.72-0.55L391.72-0.55Q395.67-0.55 396.84-3.88 398.02-7.2 398.02-15.45ZM391.62 0.5Q383.27 0.5 379.14-4.03 375.02-8.55 375.02-17.13 375.02-25.7 379.44-30.63 383.87-35.55 391.97-35.55 400.07-35.55 404.19-30.88 408.32-26.2 408.32-17.6 408.32-9 404.14-4.25 399.97 0.5 391.62 0.5ZM423.42-10.65Q423.42-6.05 424.99-3.6 426.57-1.15 430.67-1.15 434.77-1.15 436.97-3.7 439.17-6.25 439.17-11.45L439.17-11.45 439.17-34.05 435.92-34.05 435.92-35 443.22-35 443.22-34.05 440.47-34.05 440.47-11.8Q440.47-5.6 437.72-2.55 434.97 0.5 427.99 0.5 421.02 0.5 417.34-2.4 413.67-5.3 413.67-12.35L413.67-12.35 413.67-34.05 410.92-34.05 410.92-35 426.67-35 426.67-34.05 423.42-34.05 423.42-10.65Z" opacity="1" transform="matrix(1,0,0,1,0,0)" fill="#30c48d" class="slogan-text-1" data-fill-palette-color="secondary" id="text-1"></path></svg></g></svg></g></svg></g></svg></g><g></g></svg></g><defs></defs></svg><rect width="395.52" height="120.56955013358532" fill="none" stroke="none" visibility="hidden"></rect></g></svg></g></svg>